<svg width="30.093262" height="32.787415" viewBox="0 0 30.0933 32.7874" fill="none" xmlns="http://www.w3.org/2000/svg" xmlns:xlink="http://www.w3.org/1999/xlink">
	<desc>
			Created with Pixso.
	</desc>
	<defs/>
	<rect id="Component 1" width="30.093287" height="32.787395" fill="#FFFFFF" fill-opacity="0"/>
	<path id="Vector" d="M15.04 32.78C14.01 32.78 12.96 32.55 12.14 32.07L3.66 27.19C0.21 24.86 0 24.5 0 20.85L0 11.94C0 8.29 0.2 7.93 3.59 5.63L12.13 0.7C13.75 -0.24 16.29 -0.24 17.91 0.7L26.42 5.6C29.87 7.93 30.09 8.29 30.09 11.94L30.09 20.83C30.09 24.49 29.89 24.84 26.5 27.14L17.96 32.07C17.12 32.55 16.07 32.78 15.04 32.78ZM15.04 2.32C14.39 2.32 13.76 2.44 13.31 2.7L4.84 7.61C2.32 9.3 2.32 9.3 2.32 11.94L2.32 20.83C2.32 23.47 2.32 23.47 4.9 25.21L13.31 30.07C14.22 30.59 15.87 30.59 16.78 30.07L25.26 25.17C27.76 23.47 27.76 23.47 27.76 20.83L27.76 11.94C27.76 9.3 27.76 9.3 25.19 7.56L16.77 2.7C16.32 2.44 15.69 2.32 15.04 2.32Z" fill="#000000" fill-opacity="1.000000" fill-rule="nonzero"/>
	<path id="Vector" d="M15.04 22.18C11.85 22.18 9.26 19.59 9.26 16.39C9.26 13.2 11.85 10.61 15.04 10.61C18.23 10.61 20.82 13.2 20.82 16.39C20.82 19.59 18.23 22.18 15.04 22.18ZM15.04 12.93C13.13 12.93 11.57 14.48 11.57 16.39C11.57 18.31 13.13 19.86 15.04 19.86C16.95 19.86 18.51 18.31 18.51 16.39C18.51 14.48 16.95 12.93 15.04 12.93Z" fill="#000000" fill-opacity="1.000000" fill-rule="nonzero"/>
</svg>
